<svg width="64" height="64" viewBox="0 0 64 64" fill="none" xmlns="http://www.w3.org/2000/svg"><path fill="#D71A1A" d="M0 0h64v64H0z"/><path d="M31.5 36q-1.875 0-3.187-1.312Q27 33.375 27 31.5v-9q0-1.875 1.313-3.187Q29.625 18 31.5 18t3.188 1.313T36 22.5v9q0 1.875-1.312 3.188Q33.375 36 31.5 36M30 46.5v-4.612q-3.9-.525-6.45-3.488T21 31.5h3q0 3.113 2.194 5.306T31.5 39t5.306-2.194Q39 34.613 39 31.5h3q0 3.938-2.55 6.9T33 41.888V46.5zM31.5 33q.637 0 1.069-.431.43-.432.431-1.069v-9q0-.637-.431-1.069A1.45 1.45 0 0 0 31.5 21q-.637 0-1.069.431A1.45 1.45 0 0 0 30 22.5v9q0 .637.431 1.069.432.43 1.069.431" fill="#E8EAED"/></svg>